<svg width="512" height="512" viewBox="0 0 512 512" fill="none"
     xmlns="http://www.w3.org/2000/svg">

  <defs>
    <!-- Red gradient -->
    <linearGradient id="redGrad" x1="0" y1="0" x2="1" y2="1">
      <stop offset="0%" stop-color="#FF2A2A"/>
      <stop offset="100%" stop-color="#B40000"/>
    </linearGradient>

    <!-- Silver gradient -->
    <linearGradient id="silverGrad" x1="0" y1="0" x2="1" y2="1">
      <stop offset="0%" stop-color="#F4F4F4"/>
      <stop offset="100%" stop-color="#8E949B"/>
    </linearGradient>
  </defs>

  <!-- Silver arc -->
  <path
    d="M256 48
       C148 48 64 140 64 256
       C64 350 124 430 208 456
       C216 458 224 450 222 442
       C196 370 198 256 256 192
       C292 152 312 148 336 136
       C360 124 344 96 320 96
       C296 96 276 96 256 96Z"
    fill="url(#silverGrad)" />

  <!-- Red arrow -->
  <path
    d="M256 48
       C360 48 448 144 448 256
       C448 328 408 392 352 424
       L352 384
       L256 448
       L256 368
       C320 336 352 296 352 256
       C352 188 308 144 256 144
       Z"
    fill="url(#redGrad)" />

</svg>
