<svg width="900" height="200" viewBox="0 0 900 200" fill="none"
xmlns="http://www.w3.org/2000/svg">
<defs>
  <linearGradient id="redGrad" x1="0" y1="0" x2="1" y2="1">
    <stop offset="0%" stop-color="#FF2A2A"/>
    <stop offset="100%" stop-color="#B40000"/>
  </linearGradient>
  <linearGradient id="silverGrad" x1="0" y1="0" x2="1" y2="1">
    <stop offset="0%" stop-color="#F4F4F4"/>
    <stop offset="100%" stop-color="#8E949B"/>
  </linearGradient>
</defs>
<g transform="translate(0,20) scale(0.3)">
<path d="M256 48C148 48 64 140 64 256C64 350 124 430 208 456C216 458 224 450 222 442C196 370 198 256 256 192C292 152 312 148 336 136C360 124 344 96 320 96C296 96 276 96 256 96Z"
fill="url(#silverGrad)"/>
<path d="M256 48C360 48 448 144 448 256C448 328 408 392 352 424L352 384L256 448L256 368C320 336 352 296 352 256C352 188 308 144 256 144Z"
fill="url(#redGrad)"/>
</g>
<text x="220" y="115" font-family="Inter, Arial, sans-serif"
font-size="72" font-weight="700" fill="#2B2F33">MOVING</text>
<text x="520" y="115" font-family="Inter, Arial, sans-serif"
font-size="72" font-weight="700" fill="#C40000">AGAIN</text>
</svg>